# OBJ generated by ONSHAPE BY PTC INC, 1.219 Units = meters
mtllib roboticstick2.mtl
g Part 1
v -0.0086756 -0.00444931 0.14 
v -0.00856788 0.00465338 0.14 
v -0.00901931 0.00370331 0.14 
v -0.0097289 0.000641104 0.14 
v -0.00942728 -0.00248774 0.14 
v -0.00910443 -0.00348883 0.14 
v -0.00974135 -0.000410686 0.14 
v -0.00964042 -0.0014577 0.14 
v -0.00936577 0.00271014 0.14 
v -0.00960322 0.00168543 0.14 
v -0.00664201 0.00713766 0.14 
v -0.00737227 0.00638061 0.14 
v 0.00906387 0.00359288 0.14 
v 0.00506113 0.00833351 0.14 
v 0.00413394 0.00883024 0.14 
v 0.00744965 0.00629009 0.14 
v 0.00672869 0.007056 0.14 
v 0.00862408 0.00454838 0.14 
v 0.00808391 0.00545096 0.14 
v -0.00801673 0.00554929 0.14 
v 0.00592942 0.0077398 0.14 
v 0.00315863 0.00922418 0.14 
v 0.00962309 0.00156801 0.14 
v 0.00939817 0.00259555 0.14 
v 0.0097356 -0.000529636 0.14 
v 0.009736 0.000522228 0.14 
v -0.00814581 -0.00535801 0.14 
v -0.00495897 0.00839471 0.14 
v -0.00583444 0.00781164 0.14 
v 0.00214656 0.00951077 0.14 
v 5.95442e-05 0.00974982 0.14 
v 0.00939619 -0.0026027 0.14 
v 0.00962189 -0.00157534 0.14 
v 0.00807976 -0.00545711 0.14 
v 0.00862061 -0.00455495 0.14 
v -0.00402578 0.00888007 0.14 
v -0.00752121 -0.00620435 0.14 
v -0.00203024 0.00953628 0.14 
v -0.00304573 0.00926207 0.14 
v 0.00110951 0.00968667 0.14 
v 0.00906113 -0.00359977 0.14 
v 0.00744486 -0.00629575 0.14 
v -0.000991115 0.00969949 0.14 
v -0.00253896 -0.00941362 0.14 
v -0.00155825 -0.00962468 0.14 
v 0.00338135 -0.00914489 0.14 
v 0.00430311 -0.00874904 0.14 
v 0.000442108 -0.00973997 0.14 
v 0.00144057 -0.00964299 0.14 
v -0.00349279 -0.00910291 0.14 
v 0.00675855 -0.00702741 0.14 
v 0.00517932 -0.00826058 0.14 
v 0.0060007 -0.00768467 0.14 
v 0.00242379 -0.00944393 0.14 
v -0.000561038 -0.00973384 0.14 
v -0.00440965 -0.00869583 0.14 
v -0.00609411 -0.0076108 0.14 
v -0.00527983 -0.0081967 0.14 
v -0.00684388 -0.00694433 0.14 
v 0.00744486 -0.00629575 0 
v 0.00675855 -0.00702741 0 
v 0.0060007 -0.00768467 0 
v 0.00517932 -0.00826058 0 
v 0.00430311 -0.00874904 0 
v 0.00338135 -0.00914489 0 
v 0.00242379 -0.00944393 0 
v 0.00144057 -0.00964299 0 
v 0.000442108 -0.00973997 0 
v -0.000561038 -0.00973384 0 
v -0.00155825 -0.00962468 0 
v -0.00253896 -0.00941362 0 
v -0.00349279 -0.00910291 0 
v -0.00440965 -0.00869583 0 
v -0.00527983 -0.0081967 0 
v -0.00609411 -0.0076108 0 
v -0.00684388 -0.00694433 0 
v -0.00752121 -0.00620435 0 
v -0.00814581 -0.00535801 0 
v -0.0086756 -0.00444931 0 
v -0.00910443 -0.00348883 0 
v -0.00942728 -0.00248774 0 
v -0.00964042 -0.0014577 0 
v -0.00974135 -0.000410686 0 
v -0.0097289 0.000641104 0 
v -0.00960322 0.00168543 0 
v -0.00936577 0.00271014 0 
v -0.00901931 0.00370331 0 
v -0.00856788 0.00465338 0 
v -0.00801673 0.00554929 0 
v -0.00737227 0.00638061 0 
v -0.00664201 0.00713766 0 
v -0.00583444 0.00781164 0 
v -0.00495897 0.00839471 0 
v -0.00402578 0.00888007 0 
v -0.00304573 0.00926207 0 
v -0.00203024 0.00953628 0 
v -0.000991115 0.00969949 0 
v 5.95442e-05 0.00974982 0 
v 0.00110951 0.00968667 0 
v 0.00214656 0.00951077 0 
v 0.00315863 0.00922418 0 
v 0.00413394 0.00883024 0 
v 0.00506113 0.00833351 0 
v 0.00592942 0.0077398 0 
v 0.00672869 0.007056 0 
v 0.00744965 0.00629009 0 
v 0.00808391 0.00545096 0 
v 0.00862408 0.00454838 0 
v 0.00906387 0.00359288 0 
v 0.00939817 0.00259555 0 
v 0.00962309 0.00156801 0 
v 0.009736 0.000522228 0 
v 0.0097356 -0.000529636 0 
v 0.00962189 -0.00157534 0 
v 0.00939619 -0.0026027 0 
v 0.00906113 -0.00359977 0 
v 0.00862061 -0.00455495 0 
v 0.00807976 -0.00545711 0 
vn 0 0 1 
vn 0.763576 -0.645718 0 
vn 0.693185 -0.72076 0 
vn 0.615456 -0.788171 0 
vn 0.531212 -0.847239 0 
vn 0.441344 -0.897338 0 
vn 0.346805 -0.937937 0 
vn 0.248594 -0.968608 0 
vn 0.147751 -0.989025 0 
vn 0.0453444 -0.998971 0 
vn -0.0575424 -0.998343 0 
vn -0.15982 -0.987146 0 
vn -0.260406 -0.965499 0 
vn -0.358235 -0.933632 0 
vn -0.452272 -0.89188 0 
vn -0.541521 -0.840687 0 
vn -0.625037 -0.780595 0 
vn -0.701937 -0.712239 0 
vn -0.771406 -0.636344 0 
vn -0.835468 -0.54954 0 
vn -0.889806 -0.45634 0 
vn -0.933787 -0.357829 0 
vn -0.966901 -0.255153 0 
vn -0.988761 -0.149507 0 
vn -0.999112 -0.0421216 0 
vn -0.997836 0.0657543 0 
vn -0.984946 0.172865 0 
vn -0.960592 0.277964 0 
vn -0.925058 0.379827 0 
vn -0.878757 0.47727 0 
vn -0.822228 0.569158 0 
vn -0.75613 0.654421 0 
vn -0.681232 0.732068 0 
vn -0.598404 0.801194 0 
vn -0.508612 0.860996 0 
vn -0.4129 0.910776 0 
vn -0.312383 0.949956 0 
vn -0.20823 0.97808 0 
vn -0.101653 0.99482 0 
vn 0.0061071 0.999981 0 
vn 0.113796 0.993504 0 
vn 0.22016 0.975464 0 
vn 0.323962 0.94607 0 
vn 0.423994 0.905665 0 
vn 0.51909 0.854719 0 
vn 0.608145 0.793826 0 
vn 0.690122 0.723693 0 
vn 0.764067 0.645137 0 
vn 0.829119 0.559072 0 
vn 0.884521 0.466501 0 
vn 0.929628 0.3685 0 
vn 0.963915 0.26621 0 
vn 0.986983 0.160822 0 
vn 0.998565 0.0535618 0 
vn 0.998523 -0.0543216 0 
vn 0.986861 -0.161573 0 
vn 0.963712 -0.266944 0 
vn 0.929347 -0.369207 0 
vn 0.884165 -0.467174 0 
vn 0.828693 -0.559703 0 
vn 0.763576 -0.645718 0 
vn 0 0 -1 
usemtl 0.564706_0.043137_0.043137_0.000000_0.000000
o mesh0
f 1//1 2//1 3//1 
f 4//1 5//1 6//1 
f 4//1 7//1 8//1 
f 3//1 9//1 1//1 
f 8//1 5//1 4//1 
f 9//1 10//1 1//1 
f 1//1 11//1 12//1 
f 13//1 14//1 15//1 
f 13//1 16//1 17//1 
f 13//1 18//1 19//1 
f 10//1 4//1 1//1 
f 12//1 20//1 1//1 
f 13//1 21//1 14//1 
f 19//1 16//1 13//1 
f 22//1 23//1 24//1 
f 22//1 25//1 26//1 
f 20//1 2//1 1//1 
f 27//1 28//1 29//1 
f 25//1 22//1 30//1 
f 17//1 21//1 13//1 
f 26//1 23//1 22//1 
f 31//1 32//1 33//1 
f 31//1 34//1 35//1 
f 6//1 1//1 4//1 
f 27//1 36//1 28//1 
f 37//1 38//1 39//1 
f 30//1 40//1 25//1 
f 24//1 13//1 22//1 
f 31//1 41//1 32//1 
f 31//1 42//1 34//1 
f 29//1 11//1 27//1 
f 37//1 43//1 38//1 
f 15//1 22//1 13//1 
f 35//1 41//1 31//1 
f 31//1 44//1 45//1 
f 1//1 27//1 11//1 
f 37//1 31//1 43//1 
f 33//1 25//1 31//1 
f 31//1 46//1 47//1 
f 31//1 48//1 49//1 
f 31//1 50//1 44//1 
f 39//1 36//1 37//1 
f 31//1 51//1 42//1 
f 31//1 52//1 53//1 
f 31//1 54//1 46//1 
f 31//1 55//1 48//1 
f 31//1 56//1 50//1 
f 31//1 57//1 58//1 
f 27//1 37//1 36//1 
f 53//1 51//1 31//1 
f 49//1 54//1 31//1 
f 58//1 56//1 31//1 
f 37//1 59//1 31//1 
f 47//1 52//1 31//1 
f 59//1 57//1 31//1 
f 45//1 55//1 31//1 
f 40//1 31//1 25//1 
usemtl 0.960784_0.835294_0.470588_0.000000_0.000000
o mesh1
f 60//2 42//2 51//3 
f 61//3 51//3 53//4 
f 62//4 53//4 52//5 
f 63//5 52//5 47//6 
f 64//6 47//6 46//7 
f 65//7 46//7 54//8 
f 66//8 54//8 49//9 
f 67//9 49//9 48//10 
f 68//10 48//10 55//11 
f 69//11 55//11 45//12 
f 70//12 45//12 44//13 
f 71//13 44//13 50//14 
f 72//14 50//14 56//15 
f 73//15 56//15 58//16 
f 74//16 58//16 57//17 
f 75//17 57//17 59//18 
f 76//18 59//18 37//19 
f 37//19 77//19 76//18 
f 59//18 76//18 75//17 
f 57//17 75//17 74//16 
f 58//16 74//16 73//15 
f 56//15 73//15 72//14 
f 50//14 72//14 71//13 
f 44//13 71//13 70//12 
f 45//12 70//12 69//11 
f 55//11 69//11 68//10 
f 48//10 68//10 67//9 
f 49//9 67//9 66//8 
f 54//8 66//8 65//7 
f 46//7 65//7 64//6 
f 47//6 64//6 63//5 
f 52//5 63//5 62//4 
f 53//4 62//4 61//3 
f 51//3 61//3 60//2 
usemtl 0.564706_0.043137_0.043137_0.000000_0.000000
o mesh2
f 77//19 37//19 27//20 
f 78//20 27//20 1//21 
f 79//21 1//21 6//22 
f 80//22 6//22 5//23 
f 81//23 5//23 8//24 
f 82//24 8//24 7//25 
f 83//25 7//25 4//26 
f 84//26 4//26 10//27 
f 85//27 10//27 9//28 
f 86//28 9//28 3//29 
f 87//29 3//29 2//30 
f 88//30 2//30 20//31 
f 89//31 20//31 12//32 
f 90//32 12//32 11//33 
f 91//33 11//33 29//34 
f 92//34 29//34 28//35 
f 93//35 28//35 36//36 
f 94//36 36//36 39//37 
f 95//37 39//37 38//38 
f 96//38 38//38 43//39 
f 97//39 43//39 31//40 
f 98//40 31//40 40//41 
f 99//41 40//41 30//42 
f 100//42 30//42 22//43 
f 101//43 22//43 15//44 
f 102//44 15//44 14//45 
f 103//45 14//45 21//46 
f 104//46 21//46 17//47 
f 105//47 17//47 16//48 
f 106//48 16//48 19//49 
f 107//49 19//49 18//50 
f 108//50 18//50 13//51 
f 109//51 13//51 24//52 
f 110//52 24//52 23//53 
f 111//53 23//53 26//54 
f 112//54 26//54 25//55 
f 113//55 25//55 33//56 
f 114//56 33//56 32//57 
f 115//57 32//57 41//58 
f 116//58 41//58 35//59 
f 117//59 35//59 34//60 
f 118//60 34//60 42//61 
f 42//61 60//61 118//60 
f 34//60 118//60 117//59 
f 35//59 117//59 116//58 
f 41//58 116//58 115//57 
f 32//57 115//57 114//56 
f 33//56 114//56 113//55 
f 25//55 113//55 112//54 
f 26//54 112//54 111//53 
f 23//53 111//53 110//52 
f 24//52 110//52 109//51 
f 13//51 109//51 108//50 
f 18//50 108//50 107//49 
f 19//49 107//49 106//48 
f 16//48 106//48 105//47 
f 17//47 105//47 104//46 
f 21//46 104//46 103//45 
f 14//45 103//45 102//44 
f 15//44 102//44 101//43 
f 22//43 101//43 100//42 
f 30//42 100//42 99//41 
f 40//41 99//41 98//40 
f 31//40 98//40 97//39 
f 43//39 97//39 96//38 
f 38//38 96//38 95//37 
f 39//37 95//37 94//36 
f 36//36 94//36 93//35 
f 28//35 93//35 92//34 
f 29//34 92//34 91//33 
f 11//33 91//33 90//32 
f 12//32 90//32 89//31 
f 20//31 89//31 88//30 
f 2//30 88//30 87//29 
f 3//29 87//29 86//28 
f 9//28 86//28 85//27 
f 10//27 85//27 84//26 
f 4//26 84//26 83//25 
f 7//25 83//25 82//24 
f 8//24 82//24 81//23 
f 5//23 81//23 80//22 
f 6//22 80//22 79//21 
f 1//21 79//21 78//20 
f 27//20 78//20 77//19 
usemtl 0.960784_0.835294_0.470588_0.000000_0.000000
o mesh3
f 84//62 89//62 90//62 
f 88//62 85//62 86//62 
f 91//62 82//62 83//62 
f 84//62 88//62 89//62 
f 88//62 84//62 85//62 
f 91//62 81//62 82//62 
f 91//62 79//62 80//62 
f 79//62 92//62 93//62 
f 86//62 87//62 88//62 
f 80//62 81//62 91//62 
f 104//62 111//62 112//62 
f 78//62 95//62 96//62 
f 79//62 91//62 92//62 
f 83//62 84//62 91//62 
f 104//62 110//62 111//62 
f 109//62 106//62 107//62 
f 109//62 104//62 105//62 
f 78//62 94//62 95//62 
f 90//62 91//62 84//62 
f 104//62 109//62 110//62 
f 105//62 106//62 109//62 
f 113//62 101//62 102//62 
f 96//62 97//62 78//62 
f 94//62 78//62 79//62 
f 98//62 67//62 68//62 
f 98//62 116//62 117//62 
f 98//62 113//62 114//62 
f 107//62 108//62 109//62 
f 102//62 103//62 113//62 
f 113//62 99//62 100//62 
f 93//62 94//62 79//62 
f 98//62 66//62 67//62 
f 117//62 118//62 98//62 
f 114//62 115//62 98//62 
f 103//62 104//62 113//62 
f 113//62 98//62 99//62 
f 98//62 77//62 78//62 
f 98//62 71//62 72//62 
f 98//62 69//62 70//62 
f 98//62 65//62 66//62 
f 98//62 63//62 64//62 
f 115//62 116//62 98//62 
f 100//62 101//62 113//62 
f 98//62 76//62 77//62 
f 98//62 73//62 74//62 
f 70//62 71//62 98//62 
f 64//62 65//62 98//62 
f 98//62 61//62 62//62 
f 112//62 113//62 104//62 
f 98//62 75//62 76//62 
f 72//62 73//62 98//62 
f 62//62 63//62 98//62 
f 118//62 60//62 98//62 
f 74//62 75//62 98//62 
f 60//62 61//62 98//62 
f 68//62 69//62 98//62 
f 97//62 98//62 78//62 
