# OBJ generated by ONSHAPE BY PTC INC, 1.219 Units = meters
mtllib roboticstick.mtl
g Part 1
v -0.00315461 0.14 -0.00943133 
v -0.00418244 0.14 -0.00926283 
v -0.00518603 0.14 -0.00898418 
v -0.00615361 0.14 -0.00859866 
v -0.00707383 0.14 -0.00811079 
v -0.00793591 0.14 -0.00752629 
v -0.00872975 0.14 -0.006852 
v -0.00944602 0.14 -0.00609584 
v -0.0100763 0.14 -0.00526666 
v -0.0106133 0.14 -0.0043742 
v -0.0110507 0.14 -0.00342891 
v -0.0113832 0.14 -0.00244188 
v -0.0116071 0.14 -0.00142468 
v -0.0117197 0.14 -0.00038923 
v -0.0117197 0.14 0.000652323 
v -0.0116071 0.14 0.00168777 
v -0.0113832 0.14 0.00270497 
v -0.0110507 0.14 0.003692 
v -0.0106133 0.14 0.00463729 
v -0.0100763 0.14 0.00552976 
v -0.00944602 0.14 0.00635893 
v -0.00872975 0.14 0.00711509 
v -0.00793591 0.14 0.00778938 
v -0.00707383 0.14 0.00837389 
v -0.00615361 0.14 0.00886176 
v -0.00518603 0.14 0.00924728 
v -0.00418244 0.14 0.00952592 
v -0.00315461 0.14 0.00969443 
v -0.00211458 0.14 0.00975081 
v -0.00107456 0.14 0.00969443 
v -4.67226e-05 0.14 0.00952592 
v 0.000956866 0.14 0.00924728 
v 0.00192444 0.14 0.00886176 
v 0.00284467 0.14 0.00837389 
v 0.00370675 0.14 0.00778938 
v 0.00450058 0.14 0.00711509 
v 0.00521686 0.14 0.00635893 
v 0.00584718 0.14 0.00552976 
v 0.00638416 0.14 0.00463729 
v 0.0068215 0.14 0.003692 
v 0.00715406 0.14 0.00270497 
v 0.00737797 0.14 0.00168777 
v 0.00749058 0.14 0.000652323 
v 0.00749058 0.14 -0.00038923 
v 0.00737797 0.14 -0.00142468 
v 0.00715406 0.14 -0.00244188 
v 0.0068215 0.14 -0.00342891 
v 0.00638416 0.14 -0.0043742 
v 0.00584718 0.14 -0.00526666 
v 0.00521686 0.14 -0.00609584 
v 0.00450058 0.14 -0.006852 
v 0.00370675 0.14 -0.00752629 
v 0.00284467 0.14 -0.00811079 
v 0.00192444 0.14 -0.00859866 
v 0.000956866 0.14 -0.00898418 
v -4.67226e-05 0.14 -0.00926283 
v -0.00107456 0.14 -0.00943133 
v -0.00211458 0.14 -0.00948772 
v -0.00211458 0.14 0.000131547 
v -0.00211458 0 -0.00948772 
v -0.00107456 0 -0.00943133 
v -4.67226e-05 0 -0.00926283 
v 0.000956866 0 -0.00898418 
v 0.00192444 0 -0.00859866 
v 0.00284467 0 -0.00811079 
v 0.00370675 0 -0.00752629 
v 0.00450058 0 -0.006852 
v 0.00521686 0 -0.00609584 
v 0.00584718 0 -0.00526666 
v 0.00638416 0 -0.0043742 
v 0.0068215 0 -0.00342891 
v 0.00715406 0 -0.00244188 
v 0.00737797 0 -0.00142468 
v 0.00749058 0 -0.00038923 
v 0.00749058 0 0.000652323 
v 0.00737797 0 0.00168777 
v 0.00715406 0 0.00270497 
v 0.0068215 0 0.003692 
v 0.00638416 0 0.00463729 
v 0.00584718 0 0.00552976 
v 0.00521686 0 0.00635893 
v 0.00450058 0 0.00711509 
v 0.00370675 0 0.00778938 
v 0.00284467 0 0.00837389 
v 0.00192444 0 0.00886176 
v 0.000956866 0 0.00924728 
v -4.67226e-05 0 0.00952592 
v -0.00107456 0 0.00969443 
v -0.00211458 0 0.00975081 
v -0.00315461 0 0.00969443 
v -0.00418244 0 0.00952592 
v -0.00518603 0 0.00924728 
v -0.00615361 0 0.00886176 
v -0.00707383 0 0.00837389 
v -0.00793591 0 0.00778938 
v -0.00872975 0 0.00711509 
v -0.00944602 0 0.00635893 
v -0.0100763 0 0.00552976 
v -0.0106133 0 0.00463729 
v -0.0110507 0 0.003692 
v -0.0113832 0 0.00270497 
v -0.0116071 0 0.00168777 
v -0.0117197 0 0.000652323 
v -0.0117197 0 -0.00038923 
v -0.0116071 0 -0.00142468 
v -0.0113832 0 -0.00244188 
v -0.0110507 0 -0.00342891 
v -0.0106133 0 -0.0043742 
v -0.0100763 0 -0.00526666 
v -0.00944602 0 -0.00609584 
v -0.00872975 0 -0.006852 
v -0.00793591 0 -0.00752629 
v -0.00707383 0 -0.00811079 
v -0.00615361 0 -0.00859866 
v -0.00518603 0 -0.00898418 
v -0.00418244 0 -0.00926283 
v -0.00315461 0 -0.00943133 
v 0.0140078 0 -0.0124389 
v 0.0120469 0 -0.0161628 
v 0.00109096 0 0.02708 
v -0.0211502 0 -0.00827993 
v 0.0176848 0 -0.00761239 
v -0.0211502 0 0.00863308 
v 0.0163894 0 -0.00954717 
v -0.0211502 0 0.00516167 
v -0.0194953 0 -0.00327465 
v -0.0194953 0 3.5296e-05 
v 0.0187709 0 0.00726066 
v 0.0215313 0 -0.00347909 
v 0.0202094 0 -0.00578228 
v 0.021435 0 0.00435437 
v 0.0107786 0 0.0213077 
v 0.00488529 0 0.0259497 
v 0.00880071 0 0.024214 
v -0.0228052 0 0.0117816 
v -0.0228052 0 0.0153741 
v 0.0228074 0 0.000196756 
v -0.0194953 0 -0.0198244 
v -0.0228052 0 -0.0154246 
v 0.0163894 0 0.00960184 
v 0.0119896 0 0.017473 
v 0.0140078 0 0.0126696 
v 0.0099713 0 0.0232856 
v -0.0228052 0 -0.0113477 
v -0.00209978 0 -0.0271265 
v -0.00447144 0 -0.0271265 
v 0.010133 0 -0.0225497 
v 0.00715799 0 -0.0250253 
v -0.00698207 0 0.02708 
v -0.0176385 0 0.0213077 
v -0.0148129 0 0.024214 
v -0.0211502 0 0.0184418 
v -0.0148129 0 -0.0232554 
v -0.00573075 0 -0.0263232 
v -0.0104938 0 -0.0253948 
v 0.0035173 0 -0.026128 
v 0.0120469 0 -0.0194291 
v -0.0104938 0 0.0251021 
v 0.0215313 -0.05 -0.00347909 
v 0.0228074 -0.05 0.000196756 
v 0.021435 -0.05 0.00435437 
v 0.0187709 -0.05 0.00726066 
v 0.0176848 -0.05 -0.00761239 
v 0.0202094 -0.05 -0.00578228 
v 0.0163894 -0.05 0.00960184 
v 0.0119896 -0.05 0.017473 
v -0.0211502 -0.05 0.0184418 
v -0.0228052 -0.05 0.0153741 
v -0.0104938 -0.05 0.0251021 
v 0.0107786 -0.05 0.0213077 
v 0.0099713 -0.05 0.0232856 
v -0.0194953 -0.05 -0.00327465 
v -0.0211502 -0.05 -0.00827993 
v 0.0120469 -0.05 -0.0161628 
v -0.0194953 -0.05 3.5296e-05 
v 0.0163894 -0.05 -0.00954717 
v -0.0211502 -0.05 0.00863308 
v -0.0211502 -0.05 0.00516167 
v -0.0228052 -0.05 0.0117816 
v 0.00488529 -0.05 0.0259497 
v 0.00109096 -0.05 0.02708 
v 0.00880071 -0.05 0.024214 
v -0.0228052 -0.05 -0.0113477 
v -0.0228052 -0.05 -0.0154246 
v 0.0140078 -0.05 -0.0124389 
v -0.0176385 -0.05 0.0213077 
v 0.0035173 -0.05 -0.026128 
v 0.00715799 -0.05 -0.0250253 
v -0.00573075 -0.05 -0.0263232 
v -0.00447144 -0.05 -0.0271265 
v 0.0140078 -0.05 0.0126696 
v -0.0148129 -0.05 0.024214 
v 0.010133 -0.05 -0.0225497 
v -0.00209978 -0.05 -0.0271265 
v -0.0148129 -0.05 -0.0232554 
v -0.0104938 -0.05 -0.0253948 
v -0.0194953 -0.05 -0.0198244 
v -0.00698207 -0.05 0.02708 
v 0.0120469 -0.05 -0.0194291 
vn 0 1 0 
vn 0 0 -1 
vn 0.108119 0 -0.994138 
vn 0.21497 0 -0.976621 
vn 0.319302 0 -0.947653 
vn 0.419889 0 -0.907575 
vn 0.515554 0 -0.856857 
vn 0.605174 0 -0.796093 
vn 0.687699 0 -0.725995 
vn 0.762162 0 -0.647386 
vn 0.827689 0 -0.561187 
vn 0.883512 0 -0.468408 
vn 0.928977 0 -0.370138 
vn 0.96355 0 -0.267528 
vn 0.986827 0 -0.161782 
vn 0.998533 0 -0.0541389 
vn 0.998533 0 0.0541389 
vn 0.986827 0 0.161782 
vn 0.96355 0 0.267528 
vn 0.928977 0 0.370138 
vn 0.883512 0 0.468408 
vn 0.827689 0 0.561187 
vn 0.762162 0 0.647386 
vn 0.687699 0 0.725995 
vn 0.605174 0 0.796093 
vn 0.515554 0 0.856857 
vn 0.419889 0 0.907575 
vn 0.319302 0 0.947653 
vn 0.21497 0 0.976621 
vn 0.108119 0 0.994138 
vn 1.22465e-16 0 1 
vn -0.108119 0 0.994138 
vn -0.21497 0 0.976621 
vn -0.319302 0 0.947653 
vn -0.419889 0 0.907575 
vn -0.515554 0 0.856857 
vn -0.605174 0 0.796093 
vn -0.687699 0 0.725995 
vn -0.762162 0 0.647386 
vn -0.827689 0 0.561187 
vn -0.883512 0 0.468408 
vn -0.928977 0 0.370138 
vn -0.96355 0 0.267528 
vn -0.986827 0 0.161782 
vn -0.998533 0 0.0541389 
vn -0.998533 0 -0.0541389 
vn -0.986827 0 -0.161782 
vn -0.96355 0 -0.267528 
vn -0.928977 0 -0.370138 
vn -0.883512 0 -0.468408 
vn -0.827689 0 -0.561187 
vn -0.762162 0 -0.647386 
vn -0.687699 0 -0.725995 
vn -0.605174 0 -0.796093 
vn -0.515554 0 -0.856857 
vn -0.419889 0 -0.907575 
vn -0.319302 0 -0.947653 
vn -0.21497 0 -0.976621 
vn -0.108119 0 -0.994138 
vn 0 1 0 
vn 0.944688 0 -0.32797 
vn 0 -1 0 
vn 0.949601 0 0.31346 
vn 0.737153 0 0.675726 
vn 0.701038 0 0.713124 
vn 0.789912 0 0.613221 
vn 0.921927 0 0.387364 
vn 0.953583 0 0.301132 
vn 0.925847 0 0.377897 
vn 0.621395 0 0.783497 
vn 0.405264 0 0.9142 
vn 0.285477 0 0.958386 
vn 0 0 1 
vn -0.490737 0 0.871308 
vn -0.201395 0 0.97951 
vn -0.716995 0 0.697079 
vn -0.632267 0 0.77475 
vn -0.880099 0 0.47479 
vn -1 0 0 
vn -0.885164 0 -0.465279 
vn -0.951638 0 -0.307222 
vn -1 0 0 
vn -0.949446 0 0.31393 
vn -0.880099 0 0.47479 
vn -1 0 0 
vn -0.799119 0 -0.601172 
vn -0.591062 0 -0.806626 
vn -0.443861 0 -0.896096 
vn -0.191315 0 -0.981529 
vn -0.537832 0 -0.843052 
vn 0 0 -1 
vn 0.175033 0 -0.984563 
vn 0.289856 0 -0.95707 
vn 0.639655 0 -0.768662 
vn 0.852438 0 -0.522828 
vn 1 0 0 
vn 0.884828 0 -0.465919 
vn 0.771918 0 -0.635723 
vn 0.830936 0 -0.556368 
vn 0.586918 0 -0.809646 
vn 0.867313 0 -0.497762 
usemtl 0.768627_0.886275_0.952941_0.000000_0.000000
o mesh0
f 59//1 1//1 2//1 
f 2//1 3//1 59//1 
f 3//1 4//1 59//1 
f 4//1 5//1 59//1 
f 5//1 6//1 59//1 
f 6//1 7//1 59//1 
f 7//1 8//1 59//1 
f 8//1 9//1 59//1 
f 9//1 10//1 59//1 
f 10//1 11//1 59//1 
f 11//1 12//1 59//1 
f 12//1 13//1 59//1 
f 13//1 14//1 59//1 
f 14//1 15//1 59//1 
f 15//1 16//1 59//1 
f 16//1 17//1 59//1 
f 17//1 18//1 59//1 
f 18//1 19//1 59//1 
f 19//1 20//1 59//1 
f 20//1 21//1 59//1 
f 21//1 22//1 59//1 
f 22//1 23//1 59//1 
f 23//1 24//1 59//1 
f 24//1 25//1 59//1 
f 25//1 26//1 59//1 
f 26//1 27//1 59//1 
f 27//1 28//1 59//1 
f 28//1 29//1 59//1 
f 29//1 30//1 59//1 
f 30//1 31//1 59//1 
f 31//1 32//1 59//1 
f 32//1 33//1 59//1 
f 33//1 34//1 59//1 
f 34//1 35//1 59//1 
f 35//1 36//1 59//1 
f 36//1 37//1 59//1 
f 37//1 38//1 59//1 
f 38//1 39//1 59//1 
f 39//1 40//1 59//1 
f 40//1 41//1 59//1 
f 41//1 42//1 59//1 
f 42//1 43//1 59//1 
f 43//1 44//1 59//1 
f 44//1 45//1 59//1 
f 45//1 46//1 59//1 
f 46//1 47//1 59//1 
f 47//1 48//1 59//1 
f 48//1 49//1 59//1 
f 49//1 50//1 59//1 
f 50//1 51//1 59//1 
f 51//1 52//1 59//1 
f 52//1 53//1 59//1 
f 53//1 54//1 59//1 
f 54//1 55//1 59//1 
f 55//1 56//1 59//1 
f 56//1 57//1 59//1 
f 57//1 58//1 59//1 
f 58//1 1//1 59//1 
o mesh1
f 60//2 58//2 57//3 
f 61//3 57//3 56//4 
f 62//4 56//4 55//5 
f 63//5 55//5 54//6 
f 64//6 54//6 53//7 
f 65//7 53//7 52//8 
f 66//8 52//8 51//9 
f 67//9 51//9 50//10 
f 68//10 50//10 49//11 
f 69//11 49//11 48//12 
f 70//12 48//12 47//13 
f 71//13 47//13 46//14 
f 72//14 46//14 45//15 
f 73//15 45//15 44//16 
f 74//16 44//16 43//17 
f 75//17 43//17 42//18 
f 76//18 42//18 41//19 
f 77//19 41//19 40//20 
f 78//20 40//20 39//21 
f 79//21 39//21 38//22 
f 80//22 38//22 37//23 
f 81//23 37//23 36//24 
f 82//24 36//24 35//25 
f 83//25 35//25 34//26 
f 84//26 34//26 33//27 
f 85//27 33//27 32//28 
f 86//28 32//28 31//29 
f 87//29 31//29 30//30 
f 88//30 30//30 29//31 
f 89//31 29//31 28//32 
f 90//32 28//32 27//33 
f 91//33 27//33 26//34 
f 92//34 26//34 25//35 
f 93//35 25//35 24//36 
f 94//36 24//36 23//37 
f 95//37 23//37 22//38 
f 96//38 22//38 21//39 
f 97//39 21//39 20//40 
f 98//40 20//40 19//41 
f 99//41 19//41 18//42 
f 100//42 18//42 17//43 
f 101//43 17//43 16//44 
f 102//44 16//44 15//45 
f 103//45 15//45 14//46 
f 104//46 14//46 13//47 
f 105//47 13//47 12//48 
f 106//48 12//48 11//49 
f 107//49 11//49 10//50 
f 108//50 10//50 9//51 
f 109//51 9//51 8//52 
f 110//52 8//52 7//53 
f 111//53 7//53 6//54 
f 112//54 6//54 5//55 
f 113//55 5//55 4//56 
f 114//56 4//56 3//57 
f 115//57 3//57 2//58 
f 116//58 2//58 1//59 
f 117//59 1//59 58//2 
f 58//2 60//2 117//59 
f 1//59 117//59 116//58 
f 2//58 116//58 115//57 
f 3//57 115//57 114//56 
f 4//56 114//56 113//55 
f 5//55 113//55 112//54 
f 6//54 112//54 111//53 
f 7//53 111//53 110//52 
f 8//52 110//52 109//51 
f 9//51 109//51 108//50 
f 10//50 108//50 107//49 
f 11//49 107//49 106//48 
f 12//48 106//48 105//47 
f 13//47 105//47 104//46 
f 14//46 104//46 103//45 
f 15//45 103//45 102//44 
f 16//44 102//44 101//43 
f 17//43 101//43 100//42 
f 18//42 100//42 99//41 
f 19//41 99//41 98//40 
f 20//40 98//40 97//39 
f 21//39 97//39 96//38 
f 22//38 96//38 95//37 
f 23//37 95//37 94//36 
f 24//36 94//36 93//35 
f 25//35 93//35 92//34 
f 26//34 92//34 91//33 
f 27//33 91//33 90//32 
f 28//32 90//32 89//31 
f 29//31 89//31 88//30 
f 30//30 88//30 87//29 
f 31//29 87//29 86//28 
f 32//28 86//28 85//27 
f 33//27 85//27 84//26 
f 34//26 84//26 83//25 
f 35//25 83//25 82//24 
f 36//24 82//24 81//23 
f 37//23 81//23 80//22 
f 38//22 80//22 79//21 
f 39//21 79//21 78//20 
f 40//20 78//20 77//19 
f 41//19 77//19 76//18 
f 42//18 76//18 75//17 
f 43//17 75//17 74//16 
f 44//16 74//16 73//15 
f 45//15 73//15 72//14 
f 46//14 72//14 71//13 
f 47//13 71//13 70//12 
f 48//12 70//12 69//11 
f 49//11 69//11 68//10 
f 50//10 68//10 67//9 
f 51//9 67//9 66//8 
f 52//8 66//8 65//7 
f 53//7 65//7 64//6 
f 54//6 64//6 63//5 
f 55//5 63//5 62//4 
f 56//4 62//4 61//3 
f 57//3 61//3 60//2 
o mesh2
f 67//60 68//60 118//60 
f 119//60 66//60 67//60 
f 119//60 117//60 60//60 
f 120//60 84//60 85//60 
f 119//60 65//60 66//60 
f 119//60 63//60 64//60 
f 119//60 116//60 117//60 
f 121//60 115//60 116//60 
f 120//60 87//60 88//60 
f 85//60 86//60 120//60 
f 120//60 122//60 79//60 
f 122//60 76//60 77//60 
f 123//60 98//60 99//60 
f 64//60 65//60 119//60 
f 119//60 61//60 62//60 
f 116//60 119//60 121//60 
f 121//60 113//60 114//60 
f 86//60 87//60 120//60 
f 120//60 82//60 83//60 
f 120//60 80//60 81//60 
f 122//60 78//60 79//60 
f 122//60 75//60 76//60 
f 71//60 122//60 124//60 
f 125//60 101//60 102//60 
f 100//60 101//60 125//60 
f 123//60 97//60 98//60 
f 123//60 92//60 93//60 
f 123//60 90//60 91//60 
f 126//60 127//60 104//60 
f 62//60 63//60 119//60 
f 114//60 115//60 121//60 
f 121//60 110//60 111//60 
f 83//60 84//60 120//60 
f 79//60 80//60 120//60 
f 122//60 74//60 75//60 
f 122//60 72//60 73//60 
f 124//60 70//60 71//60 
f 124//60 118//60 69//60 
f 125//60 123//60 100//60 
f 123//60 96//60 97//60 
f 123//60 94//60 95//60 
f 91//60 92//60 123//60 
f 126//60 106//60 107//60 
f 104//60 105//60 126//60 
f 60//60 61//60 119//60 
f 111//60 112//60 121//60 
f 121//60 126//60 108//60 
f 81//60 82//60 120//60 
f 73//60 74//60 122//60 
f 69//60 70//60 124//60 
f 128//60 129//60 130//60 
f 129//60 128//60 131//60 
f 132//60 133//60 134//60 
f 90//60 135//60 136//60 
f 99//60 100//60 123//60 
f 93//60 94//60 123//60 
f 105//60 106//60 126//60 
f 127//60 102//60 103//60 
f 112//60 113//60 121//60 
f 108//60 109//60 121//60 
f 77//60 78//60 122//60 
f 118//60 68//60 69//60 
f 131//60 137//60 129//60 
f 132//60 120//60 133//60 
f 119//60 138//60 139//60 
f 90//60 123//60 135//60 
f 95//60 96//60 123//60 
f 103//60 104//60 127//60 
f 109//60 110//60 121//60 
f 71//60 72//60 122//60 
f 122//60 140//60 128//60 
f 120//60 141//60 142//60 
f 134//60 143//60 132//60 
f 139//60 144//60 119//60 
f 119//60 145//60 146//60 
f 119//60 147//60 148//60 
f 149//60 89//60 90//60 
f 90//60 150//60 151//60 
f 136//60 152//60 90//60 
f 107//60 108//60 126//60 
f 88//60 89//60 120//60 
f 122//60 142//60 140//60 
f 132//60 141//60 120//60 
f 119//60 153//60 138//60 
f 119//60 154//60 155//60 
f 119//60 156//60 145//60 
f 119//60 157//60 147//60 
f 90//60 158//60 149//60 
f 152//60 150//60 90//60 
f 118//60 119//60 67//60 
f 142//60 122//60 120//60 
f 155//60 153//60 119//60 
f 148//60 156//60 119//60 
f 151//60 158//60 90//60 
f 130//60 122//60 128//60 
f 146//60 154//60 119//60 
f 102//60 127//60 125//60 
f 149//60 120//60 89//60 
f 144//60 121//60 119//60 
o mesh3
f 159//61 129//61 137//61 
f 137//61 160//61 159//61 
o mesh4
f 159//62 160//62 161//62 
f 162//62 163//62 164//62 
f 163//62 162//62 165//62 
f 164//62 159//62 162//62 
f 166//62 167//62 168//62 
f 169//62 170//62 171//62 
f 161//62 162//62 159//62 
f 172//62 173//62 174//62 
f 175//62 172//62 176//62 
f 163//62 177//62 178//62 
f 168//62 179//62 166//62 
f 169//62 180//62 181//62 
f 171//62 182//62 169//62 
f 174//62 183//62 184//62 
f 165//62 177//62 163//62 
f 174//62 185//62 172//62 
f 178//62 175//62 163//62 
f 166//62 186//62 167//62 
f 186//62 166//62 169//62 
f 182//62 180//62 169//62 
f 174//62 187//62 188//62 
f 174//62 189//62 190//62 
f 174//62 173//62 183//62 
f 165//62 191//62 177//62 
f 176//62 163//62 175//62 
f 169//62 192//62 186//62 
f 169//62 166//62 170//62 
f 188//62 193//62 174//62 
f 190//62 194//62 174//62 
f 174//62 195//62 196//62 
f 184//62 197//62 174//62 
f 185//62 176//62 172//62 
f 181//62 198//62 169//62 
f 194//62 187//62 174//62 
f 197//62 195//62 174//62 
f 179//62 177//62 166//62 
f 196//62 189//62 174//62 
f 193//62 199//62 174//62 
f 191//62 166//62 177//62 
o mesh5
f 160//63 137//63 131//63 
f 131//63 161//63 160//63 
o mesh6
f 161//64 131//64 128//64 
f 128//64 162//64 161//64 
o mesh7
f 162//65 128//65 140//65 
f 140//65 165//65 162//65 
o mesh8
f 165//66 140//66 142//66 
f 142//66 191//66 165//66 
o mesh9
f 191//67 142//67 141//67 
f 141//67 166//67 191//67 
o mesh10
f 166//68 141//68 132//68 
f 132//68 170//68 166//68 
o mesh11
f 170//69 132//69 143//69 
f 143//69 171//69 170//69 
o mesh12
f 171//70 143//70 134//70 
f 134//70 182//70 171//70 
o mesh13
f 182//71 134//71 133//71 
f 133//71 180//71 182//71 
o mesh14
f 180//72 133//72 120//72 
f 120//72 181//72 180//72 
o mesh15
f 181//73 120//73 149//73 
f 149//73 198//73 181//73 
o mesh16
f 198//74 149//74 158//74 
f 158//74 169//74 198//74 
o mesh17
f 169//75 158//75 151//75 
f 151//75 192//75 169//75 
o mesh18
f 192//76 151//76 150//76 
f 150//76 186//76 192//76 
o mesh19
f 186//77 150//77 152//77 
f 152//77 167//77 186//77 
o mesh20
f 167//78 152//78 136//78 
f 136//78 168//78 167//78 
o mesh21
f 168//79 136//79 135//79 
f 135//79 179//79 168//79 
o mesh22
f 179//80 135//80 123//80 
f 123//80 177//80 179//80 
o mesh23
f 177//79 123//79 125//79 
f 125//79 178//79 177//79 
o mesh24
f 178//81 125//81 127//81 
f 127//81 175//81 178//81 
o mesh25
f 175//82 127//82 126//82 
f 126//82 172//82 175//82 
o mesh26
f 172//83 126//83 121//83 
f 121//83 173//83 172//83 
o mesh27
f 173//84 121//84 144//84 
f 144//84 183//84 173//84 
o mesh28
f 183//85 144//85 139//85 
f 139//85 184//85 183//85 
o mesh29
f 184//86 139//86 138//86 
f 138//86 197//86 184//86 
o mesh30
f 197//87 138//87 153//87 
f 153//87 195//87 197//87 
o mesh31
f 195//88 153//88 155//88 
f 155//88 196//88 195//88 
o mesh32
f 196//89 155//89 154//89 
f 154//89 189//89 196//89 
o mesh33
f 189//90 154//90 146//90 
f 146//90 190//90 189//90 
o mesh34
f 190//91 146//91 145//91 
f 145//91 194//91 190//91 
o mesh35
f 194//92 145//92 156//92 
f 156//92 187//92 194//92 
o mesh36
f 187//93 156//93 148//93 
f 148//93 188//93 187//93 
o mesh37
f 188//94 148//94 147//94 
f 147//94 193//94 188//94 
o mesh38
f 193//95 147//95 157//95 
f 157//95 199//95 193//95 
o mesh39
f 199//96 157//96 119//96 
f 119//96 174//96 199//96 
o mesh40
f 174//97 119//97 118//97 
f 118//97 185//97 174//97 
o mesh41
f 185//98 118//98 124//98 
f 124//98 176//98 185//98 
o mesh42
f 176//99 124//99 122//99 
f 122//99 163//99 176//99 
o mesh43
f 163//100 122//100 130//100 
f 130//100 164//100 163//100 
o mesh44
f 164//101 130//101 129//101 
f 129//101 159//101 164//101 
